<svg xmlns="http://www.w3.org/2000/svg" viewBox="0 0 24 24">
  <path fill="#3776AB" d="M11.914 0C5.82 0 6.2 2.656 6.2 2.656l.007 2.752h5.814v.826H3.89S0 5.789 0 11.969c0 6.18 3.403 5.963 3.403 5.963h2.031v-2.867s-.109-3.404 3.35-3.404h5.766s3.24.052 3.24-3.131V3.19S18.28 0 11.914 0zM8.708 1.844a1.057 1.057 0 1 1 0 2.115 1.056 1.056 0 0 1 0-2.115z"/>
  <path fill="#FFC331" d="M12.086 24c6.094 0 5.714-2.656 5.714-2.656l-.007-2.752h-5.814v-.826h8.131S24 18.211 24 12.031c0-6.18-3.403-5.963-3.403-5.963h-2.031v2.867s.109 3.404-3.35 3.404H9.45s-3.24-.052-3.24 3.131v5.31S5.72 24 12.086 24zm3.206-1.844a1.057 1.057 0 1 1 0-2.115 1.056 1.056 0 0 1 0 2.115z"/>
</svg>
